<svg xmlns="http://www.w3.org/2000/svg" width="40.927ex" height="3.196ex" role="img" focusable="false" viewBox="0 -1063 18089.7 1412.5" xmlns:xlink="http://www.w3.org/1999/xlink" aria-hidden="true" style="vertical-align: -0.791ex;"><defs><path id="MJX-9-TEX-B-1D409" d="M174 114Q174 96 169 82T159 63T144 47L155 45Q183 40 203 40Q271 40 290 104Q294 118 294 150T295 380V624H154V686H169Q196 683 365 683Q499 683 517 686H527V624H446V379Q446 183 446 153T441 108Q413 32 315 2Q266 -11 208 -11Q160 -11 118 -2T42 37T8 114V122Q8 150 30 174T91 198T152 174T174 122V114Z"></path><path id="MJX-9-TEX-N-28" d="M94 250Q94 319 104 381T127 488T164 576T202 643T244 695T277 729T302 750H315H319Q333 750 333 741Q333 738 316 720T275 667T226 581T184 443T167 250T184 58T225 -81T274 -167T316 -220T333 -241Q333 -250 318 -250H315H302L274 -226Q180 -141 137 -14T94 250Z"></path><path id="MJX-9-TEX-C-51" d="M114 286Q114 358 151 433T249 569T392 667T558 705Q653 705 713 641T774 460Q774 389 750 322T687 206T600 114T504 46T412 4L399 -2Q542 -62 636 -62Q660 -62 670 -54T686 -27T700 0Q734 34 770 34Q787 34 787 23Q787 -18 720 -74T563 -131Q485 -131 350 -83T145 -34Q127 -34 127 -22Q127 -12 144 5T190 31L200 34L237 35Q386 38 467 79Q550 120 612 210T675 416Q675 510 625 573T484 636Q410 636 346 587T248 469T214 333Q214 306 221 281T243 229T288 188T360 172Q403 172 441 188T490 205Q510 205 510 192Q505 162 432 132T287 102Q206 102 160 155T114 286Z"></path><path id="MJX-9-TEX-N-2C" d="M78 35T78 60T94 103T137 121Q165 121 187 96T210 8Q210 -27 201 -60T180 -117T154 -158T130 -185T117 -194Q113 -194 104 -185T95 -172Q95 -168 106 -156T131 -126T157 -76T173 -3V9L172 8Q170 7 167 6T161 3T152 1T140 0Q113 0 96 17Z"></path><path id="MJX-9-TEX-C-59" d="M65 599Q65 618 107 650T204 683Q267 683 312 643T380 533T414 385T424 217Q424 186 423 160T422 123Q426 123 468 170T567 304T650 469Q661 503 661 519Q661 546 639 570Q615 591 583 591Q569 591 569 616Q569 640 582 661T613 683Q624 683 638 679T671 664T702 625T714 558Q714 472 639 329T426 45Q361 -21 282 -82T154 -143Q97 -143 64 -104T31 -20Q31 4 44 25T70 46Q78 46 81 39T87 16T97 -9Q127 -51 182 -51Q184 -51 187 -50H190Q233 -41 314 25Q330 36 330 40Q336 79 336 178Q336 508 223 594Q199 614 158 619L148 620L139 611Q111 586 83 586Q65 586 65 599Z"></path><path id="MJX-9-TEX-C-53" d="M554 512Q536 512 536 522Q536 525 539 539T542 564Q542 588 528 604Q515 616 482 625T410 635Q374 635 349 624T312 594T295 561T290 532Q290 505 303 482T342 442T378 419T409 404Q435 391 451 383T494 357T535 323T562 282T574 231Q574 133 464 56T220 -22Q138 -22 78 21T18 123Q18 184 61 227T156 274Q178 274 178 263Q178 260 177 258Q172 247 164 239T151 227T136 218L127 213L124 202Q118 186 118 163Q120 124 165 86T292 48Q374 48 423 86T473 186V193Q473 267 347 327Q268 364 239 389Q191 431 191 486Q191 547 242 600T356 679T470 705Q472 705 478 705T489 704Q551 704 596 682T642 610Q642 566 621 545Q592 516 554 512Z"></path><path id="MJX-9-TEX-N-29" d="M60 749L64 750Q69 750 74 750H86L114 726Q208 641 251 514T294 250Q294 182 284 119T261 12T224 -76T186 -143T145 -194T113 -227T90 -246Q87 -249 86 -250H74Q66 -250 63 -250T58 -247T55 -238Q56 -237 66 -225Q221 -64 221 250T66 725Q56 737 55 738Q55 746 60 749Z"></path><path id="MJX-9-TEX-N-3D" d="M56 347Q56 360 70 367H707Q722 359 722 347Q722 336 708 328L390 327H72Q56 332 56 347ZM56 153Q56 168 72 173H708Q722 163 722 153Q722 140 707 133H70Q56 140 56 153Z"></path><path id="MJX-9-TEX-SO-5B" d="M202 -349V850H394V810H242V-309H394V-349H202Z"></path><path id="MJX-9-TEX-I-1D43D" d="M447 625Q447 637 354 637H329Q323 642 323 645T325 664Q329 677 335 683H352Q393 681 498 681Q541 681 568 681T605 682T619 682Q633 682 633 672Q633 670 630 658Q626 642 623 640T604 637Q552 637 545 623Q541 610 483 376Q420 128 419 127Q397 64 333 21T195 -22Q137 -22 97 8T57 88Q57 130 80 152T132 174Q177 174 182 130Q182 98 164 80T123 56Q115 54 115 53T122 44Q148 15 197 15Q235 15 271 47T324 130Q328 142 387 380T447 625Z"></path><path id="MJX-9-TEX-N-43" d="M56 342Q56 428 89 500T174 615T283 681T391 705Q394 705 400 705T408 704Q499 704 569 636L582 624L612 663Q639 700 643 704Q644 704 647 704T653 705H657Q660 705 666 699V419L660 413H626Q620 419 619 430Q610 512 571 572T476 651Q457 658 426 658Q322 658 252 588Q173 509 173 342Q173 221 211 151Q232 111 263 84T328 45T384 29T428 24Q517 24 571 93T626 244Q626 251 632 257H660L666 251V236Q661 133 590 56T403 -21Q262 -21 159 83T56 342Z"></path><path id="MJX-9-TEX-N-44" d="M130 622Q123 629 119 631T103 634T60 637H27V683H228Q399 682 419 682T461 676Q504 667 546 641T626 573T685 470T708 336Q708 210 634 116T442 3Q429 1 228 0H27V46H60Q102 47 111 49T130 61V622ZM593 338Q593 439 571 501T493 602Q439 637 355 637H322H294Q238 637 234 628Q231 624 231 344Q231 62 232 59Q233 49 248 48T339 46H350Q456 46 515 95Q561 133 577 191T593 338Z"></path><path id="MJX-9-TEX-N-48" d="M128 622Q121 629 117 631T101 634T58 637H25V683H36Q57 680 180 680Q315 680 324 683H335V637H302Q262 636 251 634T233 622L232 500V378H517V622Q510 629 506 631T490 634T447 637H414V683H425Q446 680 569 680Q704 680 713 683H724V637H691Q651 636 640 634T622 622V61Q628 51 639 49T691 46H724V0H713Q692 3 569 3Q434 3 425 0H414V46H447Q489 47 498 49T517 61V332H232V197L233 61Q239 51 250 49T302 46H335V0H324Q303 3 180 3Q45 3 36 0H25V46H58Q100 47 109 49T128 61V622Z"></path><path id="MJX-9-TEX-N-50" d="M130 622Q123 629 119 631T103 634T60 637H27V683H214Q237 683 276 683T331 684Q419 684 471 671T567 616Q624 563 624 489Q624 421 573 372T451 307Q429 302 328 301H234V181Q234 62 237 58Q245 47 304 46H337V0H326Q305 3 182 3Q47 3 38 0H27V46H60Q102 47 111 49T130 61V622ZM507 488Q507 514 506 528T500 564T483 597T450 620T397 635Q385 637 307 637H286Q237 637 234 628Q231 624 231 483V342H302H339Q390 342 423 349T481 382Q507 411 507 488Z"></path><path id="MJX-9-TEX-N-32" d="M109 429Q82 429 66 447T50 491Q50 562 103 614T235 666Q326 666 387 610T449 465Q449 422 429 383T381 315T301 241Q265 210 201 149L142 93L218 92Q375 92 385 97Q392 99 409 186V189H449V186Q448 183 436 95T421 3V0H50V19V31Q50 38 56 46T86 81Q115 113 136 137Q145 147 170 174T204 211T233 244T261 278T284 308T305 340T320 369T333 401T340 431T343 464Q343 527 309 573T212 619Q179 619 154 602T119 569T109 550Q109 549 114 549Q132 549 151 535T170 489Q170 464 154 447T109 429Z"></path><path id="MJX-9-TEX-N-46" d="M128 619Q121 626 117 628T101 631T58 634H25V680H582V676Q584 670 596 560T610 444V440H570V444Q563 493 561 501Q555 538 543 563T516 601T477 622T431 631T374 633H334H286Q252 633 244 631T233 621Q232 619 232 490V363H284Q287 363 303 363T327 364T349 367T372 373T389 385Q407 403 410 459V480H450V200H410V221Q407 276 389 296Q381 303 371 307T348 313T327 316T303 317T284 317H232V189L233 61Q240 54 245 52T270 48T333 46H360V0H348Q324 3 182 3Q51 3 36 0H25V46H58Q100 47 109 49T128 61V619Z"></path><path id="MJX-9-TEX-N-63" d="M370 305T349 305T313 320T297 358Q297 381 312 396Q317 401 317 402T307 404Q281 408 258 408Q209 408 178 376Q131 329 131 219Q131 137 162 90Q203 29 272 29Q313 29 338 55T374 117Q376 125 379 127T395 129H409Q415 123 415 120Q415 116 411 104T395 71T366 33T318 2T249 -11Q163 -11 99 53T34 214Q34 318 99 383T250 448T370 421T404 357Q404 334 387 320Z"></path><path id="MJX-9-TEX-N-76" d="M338 431Q344 429 422 429Q479 429 503 431H508V385H497Q439 381 423 345Q421 341 356 172T288 -2Q283 -11 263 -11Q244 -11 239 -2Q99 359 98 364Q93 378 82 381T43 385H19V431H25L33 430Q41 430 53 430T79 430T104 429T122 428Q217 428 232 431H240V385H226Q187 384 184 370Q184 366 235 234L286 102L377 341V349Q377 363 367 372T349 383T335 385H331V431H338Z"></path><path id="MJX-9-TEX-N-4E" d="M42 46Q74 48 94 56T118 69T128 86V634H124Q114 637 52 637H25V683H232L235 680Q237 679 322 554T493 303L578 178V598Q572 608 568 613T544 627T492 637H475V683H483Q498 680 600 680Q706 680 715 683H724V637H707Q634 633 622 598L621 302V6L614 0H600Q585 0 582 3T481 150T282 443T171 605V345L172 86Q183 50 257 46H274V0H265Q250 3 150 3Q48 3 33 0H25V46H42Z"></path><path id="MJX-9-TEX-N-55" d="M128 622Q121 629 117 631T101 634T58 637H25V683H36Q57 680 180 680Q315 680 324 683H335V637H302Q262 636 251 634T233 622L232 418V291Q232 189 240 145T280 67Q325 24 389 24Q454 24 506 64T571 183Q575 206 575 410V598Q569 608 565 613T541 627T489 637H472V683H481Q496 680 598 680T715 683H724V637H707Q634 633 622 598L621 399Q620 194 617 180Q617 179 615 171Q595 83 531 31T389 -22Q304 -22 226 33T130 192Q129 201 128 412V622Z"></path><path id="MJX-9-TEX-SO-5D" d="M22 810V850H214V-349H22V-309H174V810H22Z"></path><path id="MJX-9-TEX-SS-1D5B3" d="M36 608V688H644V608H518L392 609V0H288V609L162 608H36Z"></path><path id="MJX-9-TEX-N-2E" d="M78 60Q78 84 95 102T138 120Q162 120 180 104T199 61Q199 36 182 18T139 0T96 17T78 60Z"></path></defs><g stroke="currentColor" fill="currentColor" stroke-width="0" transform="scale(1,-1)"><g data-mml-node="math"><g data-mml-node="TeXAtom" data-mjx-texclass="ORD"><g data-mml-node="mi"><use data-c="1D409" xlink:href="#MJX-9-TEX-B-1D409"></use></g></g><g data-mml-node="mo" transform="translate(594,0)"><use data-c="28" xlink:href="#MJX-9-TEX-N-28"></use></g><g data-mml-node="TeXAtom" data-mjx-texclass="ORD" transform="translate(983,0)"><g data-mml-node="mi"><use data-c="51" xlink:href="#MJX-9-TEX-C-51"></use></g></g><g data-mml-node="mo" transform="translate(1800,0)"><use data-c="2C" xlink:href="#MJX-9-TEX-N-2C"></use></g><g data-mml-node="TeXAtom" data-mjx-texclass="ORD" transform="translate(2244.7,0)"><g data-mml-node="mi"><use data-c="59" xlink:href="#MJX-9-TEX-C-59"></use></g></g><g data-mml-node="mo" transform="translate(2958.7,0)"><use data-c="2C" xlink:href="#MJX-9-TEX-N-2C"></use></g><g data-mml-node="TeXAtom" data-mjx-texclass="ORD" transform="translate(3403.3,0)"><g data-mml-node="mi"><use data-c="53" xlink:href="#MJX-9-TEX-C-53"></use></g></g><g data-mml-node="mo" transform="translate(4045.3,0)"><use data-c="29" xlink:href="#MJX-9-TEX-N-29"></use></g><g data-mml-node="mo" transform="translate(4712.1,0)"><use data-c="3D" xlink:href="#MJX-9-TEX-N-3D"></use></g><g data-mml-node="TeXAtom" data-mjx-texclass="OPEN" transform="translate(5767.9,0)"><g data-mml-node="mo" transform="translate(0 -0.5)"><use data-c="5B" xlink:href="#MJX-9-TEX-SO-5B"></use></g></g><g data-mml-node="msub" transform="translate(6184.9,0)"><g data-mml-node="mi"><use data-c="1D43D" xlink:href="#MJX-9-TEX-I-1D43D"></use></g><g data-mml-node="TeXAtom" transform="translate(588,-150) scale(0.707)" data-mjx-texclass="ORD"><g data-mml-node="TeXAtom" data-mjx-texclass="ORD"><g data-mml-node="mi"><use data-c="43" xlink:href="#MJX-9-TEX-N-43"></use><use data-c="44" xlink:href="#MJX-9-TEX-N-44" transform="translate(722,0)"></use></g></g></g></g><g data-mml-node="mo" transform="translate(7873.6,0)"><use data-c="2C" xlink:href="#MJX-9-TEX-N-2C"></use></g><g data-mml-node="msub" transform="translate(8318.3,0)"><g data-mml-node="mi"><use data-c="1D43D" xlink:href="#MJX-9-TEX-I-1D43D"></use></g><g data-mml-node="TeXAtom" transform="translate(588,-150) scale(0.707)" data-mjx-texclass="ORD"><g data-mml-node="TeXAtom" data-mjx-texclass="ORD"><g data-mml-node="mi"><use data-c="48" xlink:href="#MJX-9-TEX-N-48"></use><use data-c="44" xlink:href="#MJX-9-TEX-N-44" transform="translate(750,0)"></use></g></g></g></g><g data-mml-node="mo" transform="translate(10026.9,0)"><use data-c="2C" xlink:href="#MJX-9-TEX-N-2C"></use></g><g data-mml-node="msub" transform="translate(10471.5,0)"><g data-mml-node="mi"><use data-c="1D43D" xlink:href="#MJX-9-TEX-I-1D43D"></use></g><g data-mml-node="TeXAtom" transform="translate(588,-150) scale(0.707)" data-mjx-texclass="ORD"><g data-mml-node="TeXAtom" data-mjx-texclass="ORD"><g data-mml-node="mi"><use data-c="50" xlink:href="#MJX-9-TEX-N-50"></use></g><g data-mml-node="mn" transform="translate(681,0)"><use data-c="32" xlink:href="#MJX-9-TEX-N-32"></use></g><g data-mml-node="mi" transform="translate(1181,0)"><use data-c="46" xlink:href="#MJX-9-TEX-N-46"></use></g></g></g></g><g data-mml-node="mo" transform="translate(12406.4,0)"><use data-c="2C" xlink:href="#MJX-9-TEX-N-2C"></use></g><g data-mml-node="msub" transform="translate(12851,0)"><g data-mml-node="mi"><use data-c="1D43D" xlink:href="#MJX-9-TEX-I-1D43D"></use></g><g data-mml-node="TeXAtom" transform="translate(588,-150) scale(0.707)" data-mjx-texclass="ORD"><g data-mml-node="TeXAtom" data-mjx-texclass="ORD"><g data-mml-node="mi"><use data-c="63" xlink:href="#MJX-9-TEX-N-63"></use><use data-c="76" xlink:href="#MJX-9-TEX-N-76" transform="translate(444,0)"></use></g></g></g></g><g data-mml-node="mo" transform="translate(14176.4,0)"><use data-c="2C" xlink:href="#MJX-9-TEX-N-2C"></use></g><g data-mml-node="msub" transform="translate(14621,0)"><g data-mml-node="mi"><use data-c="1D43D" xlink:href="#MJX-9-TEX-I-1D43D"></use></g><g data-mml-node="TeXAtom" transform="translate(588,-150) scale(0.707)" data-mjx-texclass="ORD"><g data-mml-node="TeXAtom" data-mjx-texclass="ORD"><g data-mml-node="mi"><use data-c="4E" xlink:href="#MJX-9-TEX-N-4E"></use><use data-c="55" xlink:href="#MJX-9-TEX-N-55" transform="translate(750,0)"></use><use data-c="43" xlink:href="#MJX-9-TEX-N-43" transform="translate(1500,0)"></use></g></g></g></g><g data-mml-node="msup" transform="translate(16830.2,0)"><g data-mml-node="TeXAtom" data-mjx-texclass="CLOSE"><g data-mml-node="mo" transform="translate(0 -0.5)"><use data-c="5D" xlink:href="#MJX-9-TEX-SO-5D"></use></g></g><g data-mml-node="TeXAtom" transform="translate(450,576.6) scale(0.707)" data-mjx-texclass="ORD"><g data-mml-node="TeXAtom" data-mjx-texclass="ORD"><g data-mml-node="mi"><use data-c="1D5B3" xlink:href="#MJX-9-TEX-SS-1D5B3"></use></g></g></g></g><g data-mml-node="mo" transform="translate(17811.7,0)"><use data-c="2E" xlink:href="#MJX-9-TEX-N-2E"></use></g></g></g></svg>