<svg xmlns="http://www.w3.org/2000/svg" width="45.487ex" height="2.273ex" role="img" focusable="false" viewBox="0 -750 20105.1 1004.8" xmlns:xlink="http://www.w3.org/1999/xlink" aria-hidden="true" style="vertical-align: -0.576ex;"><defs><path id="MJX-17-TEX-I-1D451" d="M366 683Q367 683 438 688T511 694Q523 694 523 686Q523 679 450 384T375 83T374 68Q374 26 402 26Q411 27 422 35Q443 55 463 131Q469 151 473 152Q475 153 483 153H487H491Q506 153 506 145Q506 140 503 129Q490 79 473 48T445 8T417 -8Q409 -10 393 -10Q359 -10 336 5T306 36L300 51Q299 52 296 50Q294 48 292 46Q233 -10 172 -10Q117 -10 75 30T33 157Q33 205 53 255T101 341Q148 398 195 420T280 442Q336 442 364 400Q369 394 369 396Q370 400 396 505T424 616Q424 629 417 632T378 637H357Q351 643 351 645T353 664Q358 683 366 683ZM352 326Q329 405 277 405Q242 405 210 374T160 293Q131 214 119 129Q119 126 119 118T118 106Q118 61 136 44T179 26Q233 26 290 98L298 109L352 326Z"></path><path id="MJX-17-TEX-I-1D456" d="M184 600Q184 624 203 642T247 661Q265 661 277 649T290 619Q290 596 270 577T226 557Q211 557 198 567T184 600ZM21 287Q21 295 30 318T54 369T98 420T158 442Q197 442 223 419T250 357Q250 340 236 301T196 196T154 83Q149 61 149 51Q149 26 166 26Q175 26 185 29T208 43T235 78T260 137Q263 149 265 151T282 153Q302 153 302 143Q302 135 293 112T268 61T223 11T161 -11Q129 -11 102 10T74 74Q74 91 79 106T122 220Q160 321 166 341T173 380Q173 404 156 404H154Q124 404 99 371T61 287Q60 286 59 284T58 281T56 279T53 278T49 278T41 278H27Q21 284 21 287Z"></path><path id="MJX-17-TEX-N-3D" d="M56 347Q56 360 70 367H707Q722 359 722 347Q722 336 708 328L390 327H72Q56 332 56 347ZM56 153Q56 168 72 173H708Q722 163 722 153Q722 140 707 133H70Q56 140 56 153Z"></path><path id="MJX-17-TEX-I-1D440" d="M289 629Q289 635 232 637Q208 637 201 638T194 648Q194 649 196 659Q197 662 198 666T199 671T201 676T203 679T207 681T212 683T220 683T232 684Q238 684 262 684T307 683Q386 683 398 683T414 678Q415 674 451 396L487 117L510 154Q534 190 574 254T662 394Q837 673 839 675Q840 676 842 678T846 681L852 683H948Q965 683 988 683T1017 684Q1051 684 1051 673Q1051 668 1048 656T1045 643Q1041 637 1008 637Q968 636 957 634T939 623Q936 618 867 340T797 59Q797 55 798 54T805 50T822 48T855 46H886Q892 37 892 35Q892 19 885 5Q880 0 869 0Q864 0 828 1T736 2Q675 2 644 2T609 1Q592 1 592 11Q592 13 594 25Q598 41 602 43T625 46Q652 46 685 49Q699 52 704 61Q706 65 742 207T813 490T848 631L654 322Q458 10 453 5Q451 4 449 3Q444 0 433 0Q418 0 415 7Q413 11 374 317L335 624L267 354Q200 88 200 79Q206 46 272 46H282Q288 41 289 37T286 19Q282 3 278 1Q274 0 267 0Q265 0 255 0T221 1T157 2Q127 2 95 1T58 0Q43 0 39 2T35 11Q35 13 38 25T43 40Q45 46 65 46Q135 46 154 86Q158 92 223 354T289 629Z"></path><path id="MJX-17-TEX-N-28" d="M94 250Q94 319 104 381T127 488T164 576T202 643T244 695T277 729T302 750H315H319Q333 750 333 741Q333 738 316 720T275 667T226 581T184 443T167 250T184 58T225 -81T274 -167T316 -220T333 -241Q333 -250 318 -250H315H302L274 -226Q180 -141 137 -14T94 250Z"></path><path id="MJX-17-TEX-C-51" d="M114 286Q114 358 151 433T249 569T392 667T558 705Q653 705 713 641T774 460Q774 389 750 322T687 206T600 114T504 46T412 4L399 -2Q542 -62 636 -62Q660 -62 670 -54T686 -27T700 0Q734 34 770 34Q787 34 787 23Q787 -18 720 -74T563 -131Q485 -131 350 -83T145 -34Q127 -34 127 -22Q127 -12 144 5T190 31L200 34L237 35Q386 38 467 79Q550 120 612 210T675 416Q675 510 625 573T484 636Q410 636 346 587T248 469T214 333Q214 306 221 281T243 229T288 188T360 172Q403 172 441 188T490 205Q510 205 510 192Q505 162 432 132T287 102Q206 102 160 155T114 286Z"></path><path id="MJX-17-TEX-I-1D452" d="M39 168Q39 225 58 272T107 350T174 402T244 433T307 442H310Q355 442 388 420T421 355Q421 265 310 237Q261 224 176 223Q139 223 138 221Q138 219 132 186T125 128Q125 81 146 54T209 26T302 45T394 111Q403 121 406 121Q410 121 419 112T429 98T420 82T390 55T344 24T281 -1T205 -11Q126 -11 83 42T39 168ZM373 353Q367 405 305 405Q272 405 244 391T199 357T170 316T154 280T149 261Q149 260 169 260Q282 260 327 284T373 353Z"></path><path id="MJX-17-TEX-N-2C" d="M78 35T78 60T94 103T137 121Q165 121 187 96T210 8Q210 -27 201 -60T180 -117T154 -158T130 -185T117 -194Q113 -194 104 -185T95 -172Q95 -168 106 -156T131 -126T157 -76T173 -3V9L172 8Q170 7 167 6T161 3T152 1T140 0Q113 0 96 17Z"></path><path id="MJX-17-TEX-C-59" d="M65 599Q65 618 107 650T204 683Q267 683 312 643T380 533T414 385T424 217Q424 186 423 160T422 123Q426 123 468 170T567 304T650 469Q661 503 661 519Q661 546 639 570Q615 591 583 591Q569 591 569 616Q569 640 582 661T613 683Q624 683 638 679T671 664T702 625T714 558Q714 472 639 329T426 45Q361 -21 282 -82T154 -143Q97 -143 64 -104T31 -20Q31 4 44 25T70 46Q78 46 81 39T87 16T97 -9Q127 -51 182 -51Q184 -51 187 -50H190Q233 -41 314 25Q330 36 330 40Q336 79 336 178Q336 508 223 594Q199 614 158 619L148 620L139 611Q111 586 83 586Q65 586 65 599Z"></path><path id="MJX-17-TEX-N-29" d="M60 749L64 750Q69 750 74 750H86L114 726Q208 641 251 514T294 250Q294 182 284 119T261 12T224 -76T186 -143T145 -194T113 -227T90 -246Q87 -249 86 -250H74Q66 -250 63 -250T58 -247T55 -238Q56 -237 66 -225Q221 -64 221 250T66 725Q56 737 55 738Q55 746 60 749Z"></path><path id="MJX-17-TEX-N-2212" d="M84 237T84 250T98 270H679Q694 262 694 250T679 230H98Q84 237 84 250Z"></path><path id="MJX-17-TEX-I-1D450" d="M34 159Q34 268 120 355T306 442Q362 442 394 418T427 355Q427 326 408 306T360 285Q341 285 330 295T319 325T330 359T352 380T366 386H367Q367 388 361 392T340 400T306 404Q276 404 249 390Q228 381 206 359Q162 315 142 235T121 119Q121 73 147 50Q169 26 205 26H209Q321 26 394 111Q403 121 406 121Q410 121 419 112T429 98T420 83T391 55T346 25T282 0T202 -11Q127 -11 81 37T34 159Z"></path><path id="MJX-17-TEX-N-31" d="M213 578L200 573Q186 568 160 563T102 556H83V602H102Q149 604 189 617T245 641T273 663Q275 666 285 666Q294 666 302 660V361L303 61Q310 54 315 52T339 48T401 46H427V0H416Q395 3 257 3Q121 3 100 0H88V46H114Q136 46 152 46T177 47T193 50T201 52T207 57T213 61V578Z"></path><path id="MJX-17-TEX-N-2026" d="M78 60Q78 84 95 102T138 120Q162 120 180 104T199 61Q199 36 182 18T139 0T96 17T78 60ZM525 60Q525 84 542 102T585 120Q609 120 627 104T646 61Q646 36 629 18T586 0T543 17T525 60ZM972 60Q972 84 989 102T1032 120Q1056 120 1074 104T1093 61Q1093 36 1076 18T1033 0T990 17T972 60Z"></path><path id="MJX-17-TEX-I-1D45B" d="M21 287Q22 293 24 303T36 341T56 388T89 425T135 442Q171 442 195 424T225 390T231 369Q231 367 232 367L243 378Q304 442 382 442Q436 442 469 415T503 336T465 179T427 52Q427 26 444 26Q450 26 453 27Q482 32 505 65T540 145Q542 153 560 153Q580 153 580 145Q580 144 576 130Q568 101 554 73T508 17T439 -10Q392 -10 371 17T350 73Q350 92 386 193T423 345Q423 404 379 404H374Q288 404 229 303L222 291L189 157Q156 26 151 16Q138 -11 108 -11Q95 -11 87 -5T76 7T74 17Q74 30 112 180T152 343Q153 348 153 366Q153 405 129 405Q91 405 66 305Q60 285 60 284Q58 278 41 278H27Q21 284 21 287Z"></path><path id="MJX-17-TEX-N-2E" d="M78 60Q78 84 95 102T138 120Q162 120 180 104T199 61Q199 36 182 18T139 0T96 17T78 60Z"></path></defs><g stroke="currentColor" fill="currentColor" stroke-width="0" transform="scale(1,-1)"><g data-mml-node="math"><g data-mml-node="msub"><g data-mml-node="mi"><use data-c="1D451" xlink:href="#MJX-17-TEX-I-1D451"></use></g><g data-mml-node="mi" transform="translate(553,-150) scale(0.707)"><use data-c="1D456" xlink:href="#MJX-17-TEX-I-1D456"></use></g></g><g data-mml-node="mo" transform="translate(1124.7,0)"><use data-c="3D" xlink:href="#MJX-17-TEX-N-3D"></use></g><g data-mml-node="mi" transform="translate(2180.5,0)"><use data-c="1D440" xlink:href="#MJX-17-TEX-I-1D440"></use></g><g data-mml-node="mo" transform="translate(3231.5,0)"><use data-c="28" xlink:href="#MJX-17-TEX-N-28"></use></g><g data-mml-node="msubsup" transform="translate(3620.5,0)"><g data-mml-node="TeXAtom" data-mjx-texclass="ORD"><g data-mml-node="mi"><use data-c="51" xlink:href="#MJX-17-TEX-C-51"></use></g></g><g data-mml-node="TeXAtom" transform="translate(850,413) scale(0.707)" data-mjx-texclass="ORD"><g data-mml-node="mi"><use data-c="1D452" xlink:href="#MJX-17-TEX-I-1D452"></use></g></g><g data-mml-node="mi" transform="translate(850,-247) scale(0.707)"><use data-c="1D456" xlink:href="#MJX-17-TEX-I-1D456"></use></g></g><g data-mml-node="mo" transform="translate(4850,0)"><use data-c="2C" xlink:href="#MJX-17-TEX-N-2C"></use></g><g data-mml-node="msub" transform="translate(5294.7,0)"><g data-mml-node="TeXAtom" data-mjx-texclass="ORD"><g data-mml-node="mi"><use data-c="59" xlink:href="#MJX-17-TEX-C-59"></use></g></g><g data-mml-node="mi" transform="translate(701,-150) scale(0.707)"><use data-c="1D456" xlink:href="#MJX-17-TEX-I-1D456"></use></g></g><g data-mml-node="mo" transform="translate(6289.6,0)"><use data-c="29" xlink:href="#MJX-17-TEX-N-29"></use></g><g data-mml-node="mo" transform="translate(6900.9,0)"><use data-c="2212" xlink:href="#MJX-17-TEX-N-2212"></use></g><g data-mml-node="mi" transform="translate(7901.1,0)"><use data-c="1D440" xlink:href="#MJX-17-TEX-I-1D440"></use></g><g data-mml-node="mo" transform="translate(8952.1,0)"><use data-c="28" xlink:href="#MJX-17-TEX-N-28"></use></g><g data-mml-node="msubsup" transform="translate(9341.1,0)"><g data-mml-node="TeXAtom" data-mjx-texclass="ORD"><g data-mml-node="mi"><use data-c="51" xlink:href="#MJX-17-TEX-C-51"></use></g></g><g data-mml-node="TeXAtom" transform="translate(850,413) scale(0.707)" data-mjx-texclass="ORD"><g data-mml-node="mi"><use data-c="1D450" xlink:href="#MJX-17-TEX-I-1D450"></use></g></g><g data-mml-node="mi" transform="translate(850,-247) scale(0.707)"><use data-c="1D456" xlink:href="#MJX-17-TEX-I-1D456"></use></g></g><g data-mml-node="mo" transform="translate(10547.3,0)"><use data-c="2C" xlink:href="#MJX-17-TEX-N-2C"></use></g><g data-mml-node="msub" transform="translate(10991.9,0)"><g data-mml-node="TeXAtom" data-mjx-texclass="ORD"><g data-mml-node="mi"><use data-c="59" xlink:href="#MJX-17-TEX-C-59"></use></g></g><g data-mml-node="mi" transform="translate(701,-150) scale(0.707)"><use data-c="1D456" xlink:href="#MJX-17-TEX-I-1D456"></use></g></g><g data-mml-node="mo" transform="translate(11986.9,0)"><use data-c="29" xlink:href="#MJX-17-TEX-N-29"></use></g><g data-mml-node="mo" transform="translate(12375.9,0)"><use data-c="2C" xlink:href="#MJX-17-TEX-N-2C"></use></g><g data-mml-node="mstyle" transform="translate(12653.9,0)"><g data-mml-node="mspace"></g></g><g data-mml-node="mi" transform="translate(14820.5,0)"><use data-c="1D456" xlink:href="#MJX-17-TEX-I-1D456"></use></g><g data-mml-node="mo" transform="translate(15443.3,0)"><use data-c="3D" xlink:href="#MJX-17-TEX-N-3D"></use></g><g data-mml-node="mn" transform="translate(16499.1,0)"><use data-c="31" xlink:href="#MJX-17-TEX-N-31"></use></g><g data-mml-node="mo" transform="translate(16999.1,0)"><use data-c="2C" xlink:href="#MJX-17-TEX-N-2C"></use></g><g data-mml-node="mo" transform="translate(17443.8,0)"><use data-c="2026" xlink:href="#MJX-17-TEX-N-2026"></use></g><g data-mml-node="mo" transform="translate(18782.4,0)"><use data-c="2C" xlink:href="#MJX-17-TEX-N-2C"></use></g><g data-mml-node="mi" transform="translate(19227.1,0)"><use data-c="1D45B" xlink:href="#MJX-17-TEX-I-1D45B"></use></g><g data-mml-node="mo" transform="translate(19827.1,0)"><use data-c="2E" xlink:href="#MJX-17-TEX-N-2E"></use></g></g></g></svg>